<?xml version="1.0" encoding="utf-8"?>
<!-- Generator: Adobe Illustrator 24.2.1, SVG Export Plug-In . SVG Version: 6.00 Build 0)  -->
<svg version="1.1" id="Layer_1" xmlns="http://www.w3.org/2000/svg" xmlns:xlink="http://www.w3.org/1999/xlink" x="0px" y="0px"
	 width="369.6px" height="37px" viewBox="0 0 369.6 37" style="enable-background:new 0 0 369.6 37;" xml:space="preserve">
<g>
	<path style="fill:#FFFFFF;" d="M0,10.6h14.9v1.2H1.4v8.9h12.7v1.2H1.4v9.7h13.7v1.2H0L0,10.6z"/>
	<path style="fill:#FFFFFF;" d="M33.4,16.9c0-1-0.2-1.8-0.6-2.5s-0.9-1.3-1.5-1.8s-1.4-0.8-2.2-1.1c-0.9-0.2-1.8-0.4-2.8-0.4
		c-0.6,0-1.3,0.1-2,0.2s-1.4,0.4-2,0.8s-1.1,0.8-1.5,1.5c-0.4,0.6-0.6,1.4-0.6,2.3c0,0.9,0.2,1.6,0.7,2.2c0.4,0.6,1,1,1.7,1.4
		c0.7,0.3,1.5,0.6,2.4,0.8s1.8,0.4,2.8,0.6s1.9,0.4,2.8,0.7s1.7,0.6,2.4,1.1c0.7,0.4,1.3,1,1.7,1.7s0.7,1.6,0.7,2.7
		c0,1.2-0.2,2.1-0.7,2.9s-1.1,1.4-1.9,1.9s-1.6,0.9-2.5,1.1s-1.8,0.3-2.7,0.3c-1.3,0-2.5-0.1-3.7-0.4c-1.1-0.3-2.1-0.7-3-1.4
		c-0.8-0.6-1.5-1.4-2-2.4s-0.7-2.2-0.7-3.6h1.4c-0.1,1.2,0.1,2.3,0.5,3.1s1,1.5,1.7,2.1c0.7,0.5,1.6,0.9,2.6,1.2
		c1,0.2,2,0.4,3.1,0.4c0.7,0,1.4-0.1,2.1-0.2s1.4-0.4,2.1-0.8c0.6-0.4,1.2-0.9,1.6-1.6c0.4-0.6,0.6-1.4,0.6-2.4
		c0-0.9-0.2-1.7-0.7-2.3c-0.4-0.6-1-1.1-1.7-1.4c-0.7-0.4-1.5-0.7-2.4-0.9s-1.8-0.4-2.8-0.6c-0.9-0.2-1.9-0.4-2.8-0.7
		c-0.9-0.2-1.7-0.6-2.4-1s-1.3-1-1.7-1.6C19,17.9,18.8,17,18.8,16c0-1.1,0.2-2,0.7-2.7c0.4-0.8,1-1.4,1.7-1.8c0.7-0.5,1.5-0.8,2.4-1
		s1.8-0.3,2.6-0.3c1.2,0,2.2,0.1,3.2,0.4s1.9,0.7,2.6,1.2c0.8,0.5,1.4,1.3,1.8,2.1c0.5,0.9,0.7,1.9,0.8,3.1L33.4,16.9L33.4,16.9z"/>
	<path style="fill:#FFFFFF;" d="M36.9,11.8v-1.2h17v1.2h-7.8v21h-1.4v-21L36.9,11.8z"/>
	<path style="fill:#FFFFFF;" d="M56.9,10.6h14.9v1.2H58.3v8.9H71v1.2H58.3v9.7H72v1.2H56.9V10.6z"/>
	<path style="fill:#FFFFFF;" d="M90.8,10.6h1.5l-8.9,12.9v9.3H82v-9.3l-8.8-12.9h1.6l8,11.7L90.8,10.6z"/>
	<path style="fill:#FFFFFF;" d="M177.8,10.6h8.9c1.3,0,2.4,0.2,3.3,0.5s1.6,0.8,2.1,1.3s0.9,1.2,1.2,1.8c0.2,0.7,0.4,1.4,0.4,2.1
		c0,0.6-0.1,1.2-0.3,1.7s-0.5,1-0.9,1.4s-0.8,0.8-1.4,1c-0.5,0.3-1.1,0.5-1.8,0.5l0.1,0.1c0.1,0,0.5,0,1,0.2
		c0.5,0.1,1.1,0.4,1.7,0.8s1.1,1,1.6,1.7s0.7,1.6,0.7,2.7c0,1-0.2,1.9-0.6,2.7s-0.9,1.4-1.6,1.9s-1.5,0.9-2.4,1.2
		c-1,0.3-2,0.4-3.2,0.4h-8.9L177.8,10.6z M186.7,20.7c1.9,0,3.3-0.4,4.2-1.3c0.9-0.8,1.4-1.9,1.4-3.3c0-0.8-0.2-1.5-0.5-2
		s-0.7-1-1.2-1.3s-1.1-0.6-1.8-0.7s-1.4-0.2-2.1-0.2h-7.5v8.9h7.5L186.7,20.7z M186.7,31.6c2,0,3.5-0.4,4.7-1.3
		c1.1-0.8,1.7-2.1,1.7-3.8c0-1-0.2-1.7-0.6-2.3s-0.9-1.1-1.5-1.4c-0.6-0.4-1.3-0.6-2-0.7c-0.8-0.1-1.5-0.2-2.2-0.2h-7.5v9.7
		L186.7,31.6z"/>
	<path style="fill:#FFFFFF;" d="M218.8,21.7c0,1.6-0.2,3.1-0.7,4.5s-1.2,2.6-2.1,3.7c-0.9,1-2,1.9-3.3,2.5c-1.3,0.6-2.8,0.9-4.4,0.9
		c-1.7,0-3.1-0.3-4.5-0.9c-1.3-0.6-2.4-1.4-3.3-2.5c-0.9-1-1.6-2.3-2.1-3.7s-0.7-2.9-0.7-4.5s0.2-3.1,0.7-4.5s1.2-2.6,2.1-3.7
		c0.9-1,2-1.9,3.3-2.5s2.8-0.9,4.5-0.9s3.1,0.3,4.4,0.9s2.4,1.4,3.3,2.5c0.9,1,1.6,2.3,2.1,3.7C218.5,18.6,218.8,20.1,218.8,21.7z
		 M199.1,21.7c0,1.4,0.2,2.8,0.6,4c0.4,1.3,1,2.4,1.8,3.3s1.7,1.7,2.9,2.2c1.1,0.6,2.4,0.8,3.9,0.8s2.7-0.3,3.9-0.8
		c1.1-0.6,2.1-1.3,2.9-2.2s1.4-2,1.8-3.3s0.6-2.6,0.6-4s-0.2-2.8-0.6-4c-0.4-1.3-1-2.4-1.8-3.3s-1.7-1.7-2.9-2.3
		c-1.1-0.6-2.4-0.8-3.9-0.8s-2.7,0.3-3.9,0.8c-1.1,0.6-2.1,1.3-2.9,2.3s-1.4,2-1.8,3.3C199.3,18.9,199.1,20.3,199.1,21.7z"/>
	<path style="fill:#FFFFFF;" d="M223,10.6h2l8.7,20.6h0.1l8.6-20.6h2v22.2H243V12.3h-0.1l-8.4,20.5H233l-8.5-20.5h-0.1v20.5H223
		L223,10.6z"/>
	<path style="fill:#FFFFFF;" d="M249.5,10.6h8.9c1.3,0,2.4,0.2,3.3,0.5s1.6,0.8,2.1,1.3s0.9,1.2,1.2,1.8c0.2,0.7,0.4,1.4,0.4,2.1
		c0,0.6-0.1,1.2-0.3,1.7s-0.5,1-0.9,1.4s-0.8,0.8-1.4,1c-0.5,0.3-1.1,0.5-1.8,0.5l0.1,0.1c0.1,0,0.5,0,1,0.2
		c0.5,0.1,1.1,0.4,1.7,0.8s1.1,1,1.6,1.7s0.7,1.6,0.7,2.7c0,1-0.2,1.9-0.6,2.7s-0.9,1.4-1.6,1.9s-1.5,0.9-2.4,1.2
		c-1,0.3-2,0.4-3.2,0.4h-8.9L249.5,10.6z M258.3,20.7c1.9,0,3.3-0.4,4.2-1.3c0.9-0.8,1.4-1.9,1.4-3.3c0-0.8-0.2-1.5-0.5-2
		s-0.7-1-1.2-1.3s-1.1-0.6-1.8-0.7s-1.4-0.2-2.1-0.2h-7.5v8.9h7.5V20.7z M258.3,31.6c2,0,3.5-0.4,4.7-1.3c1.1-0.8,1.7-2.1,1.7-3.8
		c0-1-0.2-1.7-0.6-2.3s-0.9-1.1-1.5-1.4c-0.6-0.4-1.3-0.6-2-0.7c-0.8-0.1-1.5-0.2-2.2-0.2h-7.5v9.7L258.3,31.6z"/>
	<path style="fill:#FFFFFF;" d="M270.4,10.6h14.9v1.2h-13.5v8.9h12.7v1.2h-12.7v9.7h13.7v1.2h-15.1V10.6z"/>
	<path style="fill:#FFFFFF;" d="M289.1,10.6h9.2c1,0,1.9,0.1,2.7,0.3s1.6,0.5,2.2,1c0.6,0.4,1.1,1,1.5,1.8c0.4,0.7,0.5,1.6,0.5,2.7
		c0,1.5-0.4,2.7-1.3,3.8c-0.8,1-2,1.7-3.5,1.9v0.1c1,0.1,1.8,0.4,2.4,0.8s1,0.9,1.3,1.5s0.5,1.3,0.6,2s0.1,1.4,0.1,2.2V30
		c0,0,0,0.8,0.1,1.2c0,0.4,0.1,0.7,0.2,1s0.2,0.6,0.4,0.8H304c-0.3-0.5-0.5-1.1-0.5-1.8s0-1.4,0-2.2s0-1.5-0.1-2.2s-0.3-1.4-0.6-2
		s-0.9-1-1.6-1.4s-1.7-0.5-3-0.5h-7.9V33h-1.4V10.6H289.1z M298.3,21.5c0.8,0,1.6-0.1,2.2-0.3c0.7-0.2,1.3-0.5,1.8-0.9
		s0.9-0.9,1.2-1.6c0.3-0.6,0.4-1.4,0.4-2.3c0-0.8-0.2-1.5-0.5-2.1s-0.7-1.1-1.2-1.4c-0.5-0.4-1.1-0.6-1.8-0.8s-1.4-0.2-2.1-0.2h-7.9
		v9.7h7.9V21.5z"/>
	<path style="fill:#FFFFFF;" d="M309.1,21.8c0-1.6,0.2-3.1,0.7-4.5s1.1-2.7,2-3.7c0.9-1.1,2-1.9,3.3-2.6c1.3-0.6,2.8-0.9,4.5-0.9
		c1.1,0,2.2,0.2,3.3,0.5c1,0.3,2,0.8,2.8,1.5c0.8,0.6,1.5,1.4,2.1,2.3s0.9,1.9,1.1,3.1h-1.3c-0.5-1.9-1.4-3.5-2.8-4.6
		c-1.3-1.1-3-1.6-5.1-1.6c-1.5,0-2.8,0.3-3.9,0.9s-2.1,1.4-2.9,2.3c-0.8,1-1.3,2.1-1.7,3.4s-0.6,2.6-0.6,4s0.2,2.7,0.6,4
		s1,2.3,1.7,3.3c0.8,0.9,1.7,1.7,2.8,2.2s2.5,0.8,4,0.8c1.3,0,2.5-0.2,3.6-0.7c1.1-0.4,1.9-1,2.7-1.8c0.7-0.8,1.3-1.7,1.7-2.8
		s0.5-2.3,0.5-3.7H320V22h9.3v10.9H328V28c-0.3,0.8-0.7,1.5-1.2,2.2s-1.2,1.2-1.9,1.6c-0.7,0.4-1.6,0.8-2.5,1s-1.8,0.4-2.8,0.4
		c-1.7,0-3.2-0.3-4.5-0.9s-2.4-1.4-3.3-2.5c-0.9-1-1.6-2.2-2-3.6C309.4,24.9,309.1,23.4,309.1,21.8L309.1,21.8z"/>
	<path style="fill:#FFFFFF;" d="M334.3,10.6h14.9v1.2h-13.5v8.9h12.7v1.2h-12.7v9.7h13.7v1.2h-15.1V10.6z"/>
	<path style="fill:#FFFFFF;" d="M353,10.6h9.2c1,0,1.9,0.1,2.7,0.3s1.6,0.5,2.2,1c0.6,0.4,1.1,1,1.5,1.8c0.4,0.7,0.5,1.6,0.5,2.7
		c0,1.5-0.4,2.7-1.3,3.8c-0.8,1-2,1.7-3.5,1.9v0.1c1,0.1,1.8,0.4,2.4,0.8s1,0.9,1.3,1.5s0.5,1.3,0.6,2s0.1,1.4,0.1,2.2V30
		c0,0,0,0.8,0.1,1.2c0,0.4,0.1,0.7,0.2,1s0.2,0.6,0.4,0.8h-1.5c-0.3-0.5-0.5-1.1-0.5-1.8s0-1.4,0-2.2s0-1.5-0.1-2.2s-0.3-1.4-0.6-2
		s-0.9-1-1.6-1.4s-1.7-0.5-3-0.5h-7.9V33H353L353,10.6z M362.3,21.5c0.8,0,1.6-0.1,2.2-0.3c0.7-0.2,1.3-0.5,1.8-0.9s0.9-0.9,1.2-1.6
		c0.3-0.6,0.4-1.4,0.4-2.3c0-0.8-0.2-1.5-0.5-2.1s-0.7-1.1-1.2-1.4c-0.5-0.4-1.1-0.6-1.8-0.8s-1.4-0.2-2.1-0.2h-7.9v9.7h7.9V21.5z"
		/>
	<path style="fill:#FFFFFF;" d="M131.2,0v8.2L95.2,37L131.2,0z"/>
	<path style="fill:#FFFFFF;" d="M131.2,12.3v9.3L95.2,37L131.2,12.3z"/>
	<path style="fill:#FFFFFF;" d="M131.2,24.7v9.2l-36,3.1L131.2,24.7z"/>
	<path style="fill:#FFFFFF;" d="M132.3,0v8.2l36,28.8L132.3,0z"/>
	<path style="fill:#FFFFFF;" d="M132.3,12.3v9.3l36,15.4L132.3,12.3z"/>
	<path style="fill:#FFFFFF;" d="M132.3,24.7v9.2l36,3.1L132.3,24.7z"/>
</g>
</svg>
