<?xml version="1.0" encoding="utf-8"?>
<!-- Generator: Adobe Illustrator 24.2.1, SVG Export Plug-In . SVG Version: 6.00 Build 0)  -->
<svg version="1.1" id="Layer_1" xmlns="http://www.w3.org/2000/svg" xmlns:xlink="http://www.w3.org/1999/xlink" x="0px" y="0px"
	 width="179.4px" height="15.5px" viewBox="0 0 179.4 15.5" style="enable-background:new 0 0 179.4 15.5;" xml:space="preserve">
<g>
	<path style="fill:#FFFFFF;" d="M46.2,0H47v0.8c0,0.6-0.3,0.9-1,0.9h-0.8V0.9C45.2,0.3,45.5,0,46.2,0z M45.2,4.1
		c0-0.6,0.3-0.9,1-0.9H47v9h-0.8c-0.7,0-1-0.3-1-0.9V4.1z"/>
	<path style="fill:#FFFFFF;" d="M51.5,10.4c0.2,0.2,0.5,0.3,0.8,0.3v0.8c0,0.4-0.2,0.7-0.5,0.7c-0.3,0.1-0.6,0.1-0.9-0.1
		c-0.5-0.2-0.9-0.5-1.1-1c-0.3-0.5-0.5-1.1-0.5-1.8V0.9c0-0.6,0.3-0.9,1-0.9h0.8v9.3C51.1,9.8,51.2,10.1,51.5,10.4z"/>
	<path style="fill:#FFFFFF;" d="M60.7,4C61.5,4.7,62,5.6,62,6.7v5.5h-0.5c-0.4,0-0.8-0.2-1-0.7c-0.7,0.7-1.7,1-2.8,1
		c-1.1,0-2.1-0.4-3-1c-0.9-0.7-1.3-1.6-1.3-2.7V6.7c0-1.1,0.4-2,1.3-2.7c0.8-0.7,1.8-1,3-1C58.8,2.9,59.8,3.3,60.7,4z M57.7,4.7
		c-0.7,0-1.3,0.2-1.8,0.6c-0.4,0.4-0.7,0.8-0.7,1.3v2.1c0,0.5,0.2,0.9,0.7,1.3c0.5,0.4,1.1,0.6,1.8,0.6c0.7,0,1.3-0.2,1.8-0.6
		c0.4-0.4,0.7-0.8,0.7-1.3V6.7c0-0.5-0.2-0.9-0.7-1.3C59,4.9,58.4,4.7,57.7,4.7z"/>
	<path style="fill:#FFFFFF;" d="M74.8,4.1c0-0.6,0.3-0.9,1-0.9h0.8v5.5c0,1.1-0.3,2-1,2.7c-0.7,0.7-1.5,1-2.6,1
		c-1.1,0-2-0.4-2.7-1.1c-0.7,0.8-1.6,1.1-2.7,1.1c-1.1,0-2-0.3-2.6-1c-0.6-0.7-1-1.6-1-2.7V4.1c0-0.6,0.3-0.9,1-0.9h0.8v5.5
		c0,0.7,0.2,1.2,0.5,1.5c0.3,0.3,0.7,0.5,1.4,0.5c0.5,0,1-0.2,1.3-0.5c0.3-0.4,0.5-0.8,0.5-1.4V4.1c0-0.6,0.3-0.9,1-0.9h0.8v5.5
		c0,0.6,0.2,1.1,0.5,1.4c0.3,0.3,0.8,0.5,1.3,0.5c0.6,0,1.1-0.2,1.4-0.5c0.3-0.3,0.5-0.8,0.5-1.5L74.8,4.1L74.8,4.1z"/>
	<path style="fill:#FFFFFF;" d="M86.5,3.2L83,13.1c-0.1,0.2-0.2,0.4-0.3,0.7c-0.1,0.2-0.2,0.4-0.3,0.6c-0.2,0.4-0.6,0.7-1,0.9
		c-0.3,0.1-0.6,0.2-0.9,0.1C80.2,15.2,80,15,80,14.6v-0.8c0.2,0,0.4-0.1,0.6-0.1c0.2-0.1,0.4-0.2,0.4-0.4l0.4-0.9
		c-0.6-0.1-0.9-0.4-1.1-0.9L77.7,4c-0.1-0.2-0.1-0.4,0-0.6c0.1-0.2,0.2-0.2,0.5-0.2h1.1l2.6,7.4h0l2.4-6.7c0.2-0.4,0.5-0.7,0.9-0.7
		L86.5,3.2L86.5,3.2z"/>
	<path style="fill:#FFFFFF;" d="M93.8,3.4c0.4,0.2,0.8,0.6,1.1,0.9c0.3,0.5,0.5,1,0.5,1.6c0,0.5-0.1,0.9-0.3,1.3
		c-0.2,0.3-0.4,0.6-0.8,0.8c-0.3,0.2-0.7,0.4-1.1,0.5c-0.4,0.1-0.7,0.2-1.2,0.2h-2.2c-0.2,0-0.3,0-0.3,0c-0.1,0-0.2-0.1-0.3-0.1v0.7
		c0,0.4,0.2,0.8,0.6,1c0.4,0.2,0.8,0.3,1.2,0.4c0.4,0.1,0.8,0,1.3-0.1c0.3-0.1,0.6-0.2,0.8-0.4c0.1-0.1,0.1-0.1,0.2-0.2
		c0.3-0.3,0.6-0.4,1.1-0.2l0.9,0.4c-0.2,0.4-0.4,0.7-0.7,1c-0.4,0.4-0.9,0.7-1.5,0.9c-0.5,0.2-1.1,0.3-1.7,0.3c-0.5,0-1-0.1-1.4-0.1
		c-0.5-0.1-0.9-0.3-1.3-0.5c-0.4-0.3-0.8-0.7-1-1.2c-0.2-0.5-0.3-1-0.3-1.5V6.1c0-0.4,0.1-0.9,0.3-1.3c0.3-0.6,0.8-1.1,1.5-1.4
		c0.6-0.3,1.3-0.4,2.1-0.4C92.2,2.9,93.1,3,93.8,3.4z M93.1,6.7c0.3-0.2,0.4-0.4,0.5-0.7c0-0.3-0.1-0.6-0.3-0.8
		c-0.4-0.3-0.9-0.4-1.3-0.4c-0.5,0-1,0-1.4,0.1C90.3,4.9,90,5,89.7,5.2c-0.3,0.2-0.4,0.5-0.4,0.8v0.8h2.9
		C92.6,6.9,92.9,6.9,93.1,6.7z"/>
	<path style="fill:#FFFFFF;" d="M97,6.4c0-1.1,0.3-1.9,1-2.4c0.6-0.5,1.2-0.7,2-0.7h1.2V4c0,0.7-0.3,1-0.9,1h-0.2
		c-0.3,0-0.6,0.1-0.8,0.3c-0.3,0.2-0.4,0.6-0.4,1.1v5.8H98c-0.7,0-1-0.3-1-0.9L97,6.4L97,6.4z"/>
	<path style="fill:#FFFFFF;" d="M112.9,5.2c-0.3-0.3-0.7-0.5-1.4-0.5c-0.6,0-1,0.2-1.3,0.5c-0.3,0.4-0.5,0.8-0.5,1.4v5.5h-0.8
		c-0.7,0-1-0.3-1-0.9V6.7c0-0.6-0.2-1.1-0.5-1.4c-0.3-0.3-0.8-0.5-1.3-0.5c-0.6,0-1.1,0.2-1.4,0.5c-0.3,0.3-0.5,0.8-0.5,1.5v5.5
		h-0.8c-0.7,0-1-0.3-1-0.9V6.7c0-1.1,0.3-2,1-2.7c0.6-0.7,1.5-1,2.6-1c0.9,0,1.7,0.3,2.3,0.8c0.1,0.1,0.2,0.2,0.4,0.3
		c0.1-0.1,0.2-0.2,0.3-0.3c0.6-0.5,1.4-0.8,2.4-0.8c1.1,0,2,0.3,2.6,1c0.6,0.7,1,1.6,1,2.7v5.5h-0.8c-0.7,0-1-0.3-1-0.9V6.7
		C113.3,6,113.2,5.5,112.9,5.2z"/>
	<path style="fill:#FFFFFF;" d="M124.1,4c0.9,0.7,1.3,1.6,1.3,2.7v5.5h-0.5c-0.4,0-0.8-0.2-1-0.7c-0.7,0.7-1.7,1-2.8,1
		c-1.1,0-2.1-0.4-3-1c-0.9-0.7-1.3-1.6-1.3-2.7V6.7c0-1.1,0.4-2,1.3-2.7c0.8-0.7,1.8-1,3-1C122.3,2.9,123.3,3.3,124.1,4z M121.1,4.7
		c-0.7,0-1.3,0.2-1.8,0.6c-0.4,0.4-0.7,0.8-0.7,1.3v2.1c0,0.5,0.2,0.9,0.7,1.3c0.5,0.4,1.1,0.6,1.8,0.6c0.7,0,1.3-0.2,1.8-0.6
		c0.4-0.4,0.7-0.8,0.7-1.3V6.7c0-0.5-0.2-0.9-0.7-1.3C122.5,4.9,121.9,4.7,121.1,4.7z"/>
	<path style="fill:#FFFFFF;" d="M127.4,6.4c0-1.1,0.3-1.9,1-2.4c0.6-0.5,1.2-0.7,2-0.7h1.2V4c0,0.7-0.3,1-0.9,1h-0.2
		c-0.3,0-0.6,0.1-0.8,0.3c-0.3,0.2-0.4,0.6-0.4,1.1v5.8h-0.8c-0.7,0-1-0.3-1-0.9V6.4z"/>
	<path style="fill:#FFFFFF;" d="M133.1,0.9c0-0.6,0.3-0.9,1-0.9h0.8v6.9h0.7c0.4,0,0.7,0,0.9-0.3l1.7-2.8c0.3-0.4,0.6-0.6,1.1-0.6
		h1.4l-2.1,3.5c-0.1,0.2-0.2,0.4-0.4,0.5c0.6,0.3,1,0.8,1.3,1.5l1.5,3.5h-1.1c-0.5,0-0.9-0.2-1-0.6l-1-2.2c-0.2-0.4-0.5-0.7-1-0.7
		h-1.9v3.5h-0.8c-0.7,0-1-0.3-1-0.9L133.1,0.9L133.1,0.9z"/>
	<path style="fill:#FFFFFF;" d="M148.3,3.4c0.4,0.2,0.8,0.6,1.1,0.9c0.3,0.5,0.5,1,0.5,1.6c0,0.5-0.1,0.9-0.3,1.3
		c-0.2,0.3-0.4,0.6-0.8,0.8c-0.3,0.2-0.7,0.4-1.1,0.5c-0.4,0.1-0.7,0.2-1.2,0.2h-2.2c-0.2,0-0.3,0-0.3,0c-0.1,0-0.2-0.1-0.3-0.1v0.7
		c0,0.4,0.2,0.8,0.6,1c0.4,0.2,0.8,0.3,1.2,0.4c0.4,0.1,0.8,0,1.3-0.1c0.3-0.1,0.6-0.2,0.8-0.4c0.1-0.1,0.1-0.1,0.2-0.2
		c0.3-0.3,0.6-0.4,1.1-0.2l0.9,0.4c-0.2,0.4-0.4,0.7-0.7,1c-0.4,0.4-0.9,0.7-1.5,0.9c-0.5,0.2-1.1,0.3-1.7,0.3c-0.5,0-1-0.1-1.4-0.1
		c-0.5-0.1-0.9-0.3-1.3-0.5c-0.4-0.3-0.8-0.7-1-1.2c-0.2-0.5-0.3-1-0.3-1.5V6.1c0-0.4,0.1-0.9,0.3-1.3c0.3-0.6,0.8-1.1,1.5-1.4
		c0.6-0.3,1.3-0.4,2.1-0.4C146.7,2.9,147.5,3,148.3,3.4z M147.6,6.7c0.3-0.2,0.4-0.4,0.5-0.7c0-0.3-0.1-0.6-0.3-0.8
		c-0.4-0.3-0.9-0.4-1.3-0.4c-0.5,0-1,0-1.4,0.1c-0.4,0.1-0.7,0.2-0.9,0.4c-0.3,0.2-0.4,0.5-0.4,0.8v0.8h2.9
		C147.1,6.9,147.4,6.9,147.6,6.7z"/>
	<path style="fill:#FFFFFF;" d="M155.5,3.2V4c0,0.7-0.3,1-0.9,1h-1.2v4.3c0,0.5,0.1,0.8,0.4,1.1c0.2,0.2,0.5,0.3,0.8,0.3v0.8
		c0,0.4-0.2,0.7-0.5,0.7c-0.3,0.1-0.6,0.1-0.9-0.1c-0.5-0.2-0.9-0.5-1.1-1c-0.3-0.5-0.5-1.1-0.5-1.8V0.9c0-0.6,0.3-0.9,1-0.9h0.8
		v3.2H155.5z"/>
	<path style="fill:#FFFFFF;" d="M157.9,0h0.8v0.8c0,0.6-0.3,0.9-1,0.9H157V0.9C157,0.3,157.3,0,157.9,0z M157,4.1
		c0-0.6,0.3-0.9,1-0.9h0.8v9h-0.8c-0.7,0-1-0.3-1-0.9V4.1z"/>
	<path style="fill:#FFFFFF;" d="M162.2,3.9c0.8-0.7,1.7-1,2.8-1c1.1,0,2,0.3,2.8,1c0.8,0.7,1.3,1.6,1.3,2.6v5.7h-0.8
		c-0.7,0-1-0.3-1-0.9V6.5c0-0.5-0.2-0.9-0.6-1.2c-0.5-0.4-1-0.6-1.7-0.6c-0.7,0-1.2,0.2-1.7,0.6c-0.4,0.3-0.6,0.7-0.6,1.2v5.7h-0.8
		c-0.7,0-1-0.3-1-0.9V6.5C160.9,5.5,161.3,4.6,162.2,3.9z"/>
	<path style="fill:#FFFFFF;" d="M178.1,4c0.9,0.7,1.3,1.6,1.3,2.7v5.4c0,0.5-0.1,1-0.3,1.5c-0.4,0.9-1.3,1.5-2.2,1.7
		c-0.5,0.1-1,0.2-1.6,0.2c-0.5,0-0.9-0.1-1.4-0.1c-0.4-0.1-0.7-0.2-0.8-0.5c-0.1-0.2-0.1-0.4,0-0.7l0.2-0.7c0.4,0.2,0.9,0.3,1.6,0.3
		c0.6,0,1.1-0.1,1.6-0.2c0.9-0.2,1.3-0.7,1.3-1.5v-0.4c-0.7,0.5-1.6,0.7-2.5,0.7c-1.1,0-2.1-0.4-3-1c-0.9-0.7-1.3-1.6-1.3-2.7V6.7
		c0-1.1,0.4-2,1.3-2.7c0.8-0.7,1.8-1,3-1C176.3,2.9,177.2,3.3,178.1,4z M175.1,4.7c-0.7,0-1.3,0.2-1.8,0.6c-0.4,0.4-0.7,0.8-0.7,1.3
		v2.1c0,0.5,0.2,0.9,0.7,1.3c0.5,0.4,1.1,0.6,1.8,0.6s1.3-0.2,1.8-0.6c0.4-0.4,0.7-0.8,0.7-1.3V6.7c0-0.5-0.2-0.9-0.7-1.3
		C176.4,4.9,175.8,4.7,175.1,4.7z"/>
	<g>
		<path style="fill:#FFFFFF;" d="M3.5,6.6c0-0.8-0.1-1.5-0.9-1.5C2,5.1,1.7,5.3,1.7,5.9c0,0.7,0.4,0.9,0.9,1.2
			c0.5,0.3,1.5,1,1.9,1.4C5.1,9,5.3,9.6,5.3,10.3c0,1.6-1.1,2.5-2.6,2.5c-1.9,0-2.6-1.1-2.6-2.6V9.5h1.6V10c0,0.8,0.2,1.4,1,1.4
			c0.7,0,1-0.4,1-1C3.6,10,3.4,9.6,3,9.3c-0.8-0.7-1.9-1.1-2.5-2C0.2,7,0,6.5,0,6c0-1.5,0.8-2.3,2.5-2.3c2.6,0,2.5,2,2.5,2.8H3.5z"
			/>
		<path style="fill:#FFFFFF;" d="M7.1,12.6V4h1.6v8.6H7.1z"/>
		<path style="fill:#FFFFFF;" d="M10.1,4h5.4v1.3h-1.9v7.3H12V5.2h-1.9L10.1,4L10.1,4z"/>
		<path style="fill:#FFFFFF;" d="M16.8,12.6V4h4.5v1.3h-2.9v2.2h2.7v1.3h-2.7v2.6h2.9v1.3H16.8z"/>
		<path style="fill:#FFFFFF;" d="M26.4,12.6V4H29c0.7,0,1.4,0,1.8,0.6c0.4,0.5,0.4,1,0.4,1.5c0,0.7-0.2,1.5-1,1.8v0
			c0.9,0.1,1.3,0.9,1.3,2c0,0.4,0,0.7-0.1,1.1c-0.3,1.1-1,1.5-2.1,1.5L26.4,12.6L26.4,12.6z M28.3,7.4c0.4,0,0.9,0,1.1-0.3
			c0.1-0.2,0.2-0.5,0.2-0.9c0-0.6-0.1-1-0.9-1H28v2.2H28.3z M28.3,11.3c0.3,0,0.7,0,1-0.1c0.4-0.2,0.5-0.8,0.5-1.2
			c0-0.9-0.2-1.3-1.2-1.3H28v2.6L28.3,11.3L28.3,11.3z"/>
		<path style="fill:#FFFFFF;" d="M35.3,6.2c0.2,0.4,0.3,0.9,0.4,1.3h0c0.1-0.7,0.3-1.1,0.5-1.6L37,4h1.8l-2.3,4.9v3.7h-1.6V8.9
			L32.6,4h1.8L35.3,6.2z"/>
	</g>
</g>
</svg>
