<?xml version="1.0" encoding="utf-8"?>
<!-- Generator: Adobe Illustrator 24.2.1, SVG Export Plug-In . SVG Version: 6.00 Build 0)  -->
<svg version="1.1" id="Layer_1" xmlns="http://www.w3.org/2000/svg" xmlns:xlink="http://www.w3.org/1999/xlink" x="0px" y="0px"
	 width="86.9px" height="54.4px" viewBox="0 0 86.9 54.4" style="enable-background:new 0 0 86.9 54.4;" xml:space="preserve">
<g>
	<path style="fill:#FFFFFF;" d="M86.1,7.5h-4.9v32.2c0,1.3-1,2.3-2.3,2.3c-0.8,0-1.5-0.4-1.9-1L60,14.2c-0.3-0.4-0.8-0.5-1.2-0.2
		c-0.2,0.2-0.4,0.4-0.4,0.7l0,25c0,1.3-1,2.3-2.3,2.3c-0.8,0-1.5-0.4-1.9-1l-17-26.7C37,13.8,36.4,13.7,36,14
		c-0.2,0.2-0.4,0.4-0.4,0.7l0,25.9c0,0.8-0.6,1.4-1.4,1.4l-13.8,0c-8.2,0-14.8-6.6-14.8-14.8s6.6-14.8,14.8-14.8l7.3,0V7.5
		c0,0-7.3,0-7.3,0C9.6,7.5,0.8,16.3,0.8,27.2s8.8,19.7,19.7,19.7l13.8,0c3.5,0,6.3-2.8,6.3-6.3l0-12l9.5,15c1.3,2,3.5,3.2,6,3.2
		c4,0,7.2-3.2,7.2-7.2l0-11.1l9.5,15c1.3,2,3.5,3.2,6,3.2c4,0,7.2-3.2,7.2-7.2L86.1,7.5z"/>
	<path style="fill:#FFFFFF;" d="M12,27.2c0-4.7,3.8-8.4,8.4-8.4l7.3,0v-5c0,0-7.3,0-7.3,0c-7.4,0-13.3,6-13.3,13.4
		c0,7.4,6,13.4,13.3,13.4l13.1,0c0.4,0,0.7-0.3,0.7-0.7l0-25.2c0-1.3,1-2.3,2.3-2.3c0.8,0,1.5,0.4,1.9,1l17,26.8
		c0.2,0.2,0.4,0.3,0.7,0.3c0.5,0,0.9-0.4,0.9-0.9l0-25c0-1.3,1-2.3,2.3-2.3c0.8,0,1.5,0.4,1.9,1l17,26.8c0.2,0.2,0.4,0.3,0.7,0.3
		c0.5,0,0.9-0.4,0.9-0.9l0-32.2h-4.9v18.2l-9.5-14.9c-1.3-2-3.5-3.3-6-3.3c-4,0-7.2,3.2-7.2,7.2l0,11l-9.5-14.9
		c-1.3-2-3.5-3.3-6-3.3c-4,0-7.2,3.2-7.2,7.2l0,20.2c0,0.4-0.3,0.7-0.7,0.7l-8.1,0C15.8,35.7,12,31.8,12,27.2z"/>
</g>
<g>
	<polygon id="XMLID_131_" style="fill:#FFFFFF;" points="56.7,-89.5 67.2,-89.5 67.6,-84.9 61.7,-84.9 61.7,-82.6 66.5,-82.6 
		66.5,-78.1 61.6,-78.1 61.6,-72.7 56.7,-72.7 56.7,-89.5 	"/>
	<path style="fill:#FFFFFF;" d="M75.9-89.5c-4.8,0-8.6,3.8-8.6,8.5c0,4.7,3.9,8.5,8.6,8.5c4.8,0,8.6-3.8,8.6-8.5
		C84.6-85.7,80.7-89.5,75.9-89.5z M77.4-77.5c-0.2,0.7-0.3,1.4-1.5,1.4c-0.6,0-1.3-0.5-1.4-1.5l0-7.5l0,0c0.2-0.7,1-1.2,1.5-1.2
		c1,0.1,1.3,0.9,1.4,1.4V-77.5z"/>
	<polygon id="XMLID_130_" style="fill:#FFFFFF;" points="82.3,-89.4 87.6,-89.4 89.7,-86 91.8,-89.4 97.1,-89.4 92.5,-81.4 
		97.7,-72.7 92.2,-72.7 89.8,-76.8 87.4,-72.7 82.1,-72.7 87.1,-81.3 	"/>
	<polygon id="XMLID_129_" style="fill:#FFFFFF;" points="44.6,-54.5 44.6,-69.8 49,-69.8 53.7,-62.1 53.7,-69.8 57.5,-69.8 
		57.5,-54.5 53.8,-54.5 48.5,-63.3 48.5,-54.5 	"/>
	<polygon id="XMLID_111_" style="fill:#FFFFFF;" points="58.5,-69.8 58.5,-54.5 68.5,-54.5 68.5,-58 62.3,-58 62.3,-60.7 
		67.3,-60.7 67.3,-64 62.3,-64 62.3,-66.3 68.4,-66.3 68.4,-69.8 	"/>
	<path id="XMLID_110_" style="fill:#FFFFFF;" d="M86.3-59l3.6-0.8c0.4,0.9,0.7,1.8,2.4,1.8c1.2,0.1,1.5-0.4,1.6-0.8
		c0.1-1-0.9-1.3-1.9-1.6c-1.5-0.4-2.9-0.9-3.9-1.7c-0.8-0.7-1.6-1.5-1.2-4.1c0.5-2.1,1.8-3.6,4.5-3.9c4.1-0.5,5.6,1.6,6.4,3.8
		l-3.4,1.1c-0.5-0.7-0.9-1.6-1.9-1.6c-1.3,0-1.5,0.8-1.6,1.1c-0.1,0.6,0.5,0.9,1.3,1.1c1.8,0.4,2.6,0.7,3.3,1c1.2,0.5,2,1.3,2.3,2.3
		c0.8,2.5-0.2,4.9-2,6.1c-1.4,0.9-3.1,1.3-5.8,0.6C88.2-55.2,86.8-56.7,86.3-59L86.3-59z"/>
	<polygon id="XMLID_109_" style="fill:#FFFFFF;" points="69.1,-69.9 73.1,-69.9 75,-60.8 76.7,-69.9 80.1,-69.9 81.9,-61 
		83.8,-69.9 87,-69.9 83.4,-54.5 79.9,-54.5 78.1,-63.2 76.3,-54.6 72.7,-54.6 	"/>
	<polygon id="XMLID_105_" style="fill:#FFFFFF;" points="34.9,-52 44,-66.2 44,-70.4 46.6,-70.4 56.2,-85.5 56.2,-90.1 59.2,-90.1 
		67.9,-104.1 59.6,-104.1 34.7,-51.9 34.9,-51.9 	"/>
	<polygon id="XMLID_2_" style="fill:#FFFFFF;" points="34.5,-52 52.7,-104.1 45.3,-104.1 34.5,-52.9 34.5,-52 	"/>
</g>
<g>
	<path style="fill-rule:evenodd;clip-rule:evenodd;fill:#FFFFFF;" d="M139.9-105.9c-6.1,0-11.1,5-11.1,11.2c0,6.2,5,11.2,11.1,11.2
		c6.1,0,11.1-5,11.1-11.2C150.9-100.9,146-105.9,139.9-105.9L139.9-105.9L139.9-105.9L139.9-105.9z M139.9-88.1
		c-4.5,0-8.2-3-10.2-6.6c2-3.6,5.7-6.5,10.2-6.5c4.6,0,8.3,2.9,10.2,6.5C148.1-91.2,144.5-88.1,139.9-88.1L139.9-88.1L139.9-88.1
		L139.9-88.1z"/>
	<path style="fill-rule:evenodd;clip-rule:evenodd;fill:#FFFFFF;" d="M139.9-89c3.1,0,5.6-2.5,5.6-5.7c0-3.1-2.5-5.7-5.6-5.7
		c-3.1,0-5.6,2.5-5.6,5.7C134.2-91.6,136.8-89,139.9-89L139.9-89L139.9-89L139.9-89z"/>
	<path style="fill-rule:evenodd;clip-rule:evenodd;fill:#FFFFFF;" d="M156.9-94.7c0-8.1,2.3-11,5.1-11c3.9,0,6,5.8,6.7,8.1l0,0v-7.8
		l0,0c-0.7,0.5-1,0.8-1.7,0.8c-0.7,0-1.8-0.4-2.3-0.7c-0.5-0.3-1.6-0.6-2.6-0.6c-3.4,0-9.4,4.6-9.4,11.2c0,7.8,5.3,11.2,9.4,11.2
		c1,0,2.2-0.4,2.7-0.7c0.5-0.3,1.5-0.7,2.2-0.7c0.7,0,1,0.3,1.7,0.8l0,0v-7.9l0,0c-0.6,3.1-2.8,8.4-6.7,8.4c-1.1,0-2.6-0.5-3.3-1.3
		C158.4-85.2,156.9-86.3,156.9-94.7L156.9-94.7L156.9-94.7L156.9-94.7z"/>
	<path style="fill-rule:evenodd;clip-rule:evenodd;fill:#FFFFFF;" d="M181.6-95.6c4.3-0.9,5-2.8,5-4.8c0-2.6-3-5.2-7.3-5.2h-10.2
		v0.2h3.4V-84h-3.4v0.2h10.7c3.2,0,8-2,8-6.2C187.8-94.2,183.3-95.4,181.6-95.6z M183-100.4c0,4.5-1.5,4.7-2.9,4.7h-3.2v-9.7h2.4
		C181.2-105.4,183-104.9,183-100.4z M179.7-84h-3.1v-0.1h0.3v-11.4h3c2.2,0.1,3.9,1.1,3.9,5.8C183.8-85,182.2-84,179.7-84z"/>
	<path style="fill-rule:evenodd;clip-rule:evenodd;fill:#FFFFFF;" d="M200.6-97.7h0.3l0-8.2h-0.2c0,0-0.7,0.8-1.7,0.8
		c-1,0-2.5-0.9-4.1-0.9c-1.6,0-5.9,1.7-5.9,6.6s3.3,5.7,4.8,6.4c1.5,0.6,6.4,1.7,6.4,4.9c0,3.2-2.3,4.4-4.2,4.4
		c-1.9,0-4.3-1.4-5.6-4.3c-1.3-2.9-1.3-4.3-1.3-4.3h-0.3v8.3h0.2c0,0,0.6-0.8,1.4-0.8c0.8,0,3.5,1.4,5.7,1.4c2.2,0,6.6-2.2,6.6-7.2
		c0-4.9-3.7-5.5-5-5.9c-1.3-0.5-6.4-1.3-6.4-5c0-3.7,3.8-5,6-3.4C199.4-103.3,200.5-98.9,200.6-97.7z"/>
	<path style="fill-rule:evenodd;clip-rule:evenodd;fill:#FFFFFF;" d="M197.6-71.5c-1.3-0.5-6.4-1.3-6.4-5c0-3.7,3.8-5,6-3.4
		c2.2,1.6,3.3,6,3.4,7.2h0.3l0-8.2h-0.2c0,0-0.7,0.8-1.7,0.8c-1,0-2.5-0.9-4.1-0.9c-1.6,0-5.9,1.7-5.9,6.6c0,4.9,3.3,5.7,4.8,6.4
		c1.5,0.6,6.4,1.7,6.4,4.9c0,3.2-2.3,4.4-4.2,4.4c-1.9,0-4.3-1.4-5.6-4.3c-1.3-2.9-1.3-4.3-1.3-4.3h-0.3v8.3h0.2
		c0,0,0.6-0.8,1.4-0.8c0.8,0,3.5,1.4,5.7,1.4c2.2,0,6.6-2.2,6.6-7.2C202.7-70.4,198.9-71,197.6-71.5z M190.2-80.7h-5v0.6h2.2
		l-4.8,15.7L178-80h2.4v-0.6h-8v0.6h1.4l2.1,6.6l-2.8,9.1L168.5-80h1.8v-0.6h-28.6v0.6h2.5v13.8l-8.8-14.4h-1h-0.6H129v0.6h2.4v20.7
		H129v0.5h5.4v-0.5h-2.3V-78l11.6,19.2h0.5h0.2h0.3V-80h4.4v20.7h-2.4v0.5h16.9V-59v-0.3v-6.3H163c0,0-0.8,3.8-2.5,5.1
		c-0.9,0.7-1.8,1-2.5,1.2h-5.2v-10.8c0.3,0,1,0,1.6,0c0.9,0,1.7,0.2,2.4,1c0.8,0.8,1.4,3.5,1.4,3.5h0.5v-9.4h-0.5
		c0,0-0.3,1.2-0.8,2.6c-0.5,1.4-2.2,1.9-3,1.9c-0.6,0-1.3,0-1.7,0V-80h4.7c1,0.3,2.3,0.8,2.9,1.6c1.1,1.4,1.4,3.1,1.4,3.1h0.5V-80
		h1.9l6.6,22h0.8l4.5-14.4l4.3,14.4h0.8l6.9-22h2V-80.7z"/>
</g>
</svg>
