<?xml version="1.0" encoding="utf-8"?>
<!-- Generator: Adobe Illustrator 24.2.1, SVG Export Plug-In . SVG Version: 6.00 Build 0)  -->
<svg version="1.1" id="Layer_1" xmlns="http://www.w3.org/2000/svg" xmlns:xlink="http://www.w3.org/1999/xlink" x="0px" y="0px"
	 width="86.9px" height="54.4px" viewBox="0 0 86.9 54.4" style="enable-background:new 0 0 86.9 54.4;" xml:space="preserve">
<g>
	<path style="fill-rule:evenodd;clip-rule:evenodd;fill:#FFFFFF;" d="M17.6,3.3c-6.1,0-11.1,5-11.1,11.2c0,6.2,5,11.2,11.1,11.2
		c6.1,0,11.1-5,11.1-11.2C28.7,8.3,23.7,3.3,17.6,3.3L17.6,3.3L17.6,3.3L17.6,3.3z M17.6,21.1c-4.5,0-8.2-3-10.2-6.6
		c2-3.6,5.7-6.5,10.2-6.5c4.6,0,8.3,2.9,10.2,6.5C25.8,18,22.2,21.1,17.6,21.1L17.6,21.1L17.6,21.1L17.6,21.1z"/>
	<path style="fill-rule:evenodd;clip-rule:evenodd;fill:#FFFFFF;" d="M17.6,20.2c3.1,0,5.6-2.5,5.6-5.7c0-3.1-2.5-5.7-5.6-5.7
		c-3.1,0-5.6,2.5-5.6,5.7C12,17.6,14.5,20.2,17.6,20.2L17.6,20.2L17.6,20.2L17.6,20.2z"/>
	<path style="fill-rule:evenodd;clip-rule:evenodd;fill:#FFFFFF;" d="M34.6,14.5c0-8.1,2.3-11,5.1-11c3.9,0,6,5.8,6.7,8.1l0,0V3.7
		l0,0c-0.7,0.5-1,0.8-1.7,0.8c-0.7,0-1.8-0.4-2.3-0.7c-0.5-0.3-1.6-0.6-2.6-0.6c-3.4,0-9.4,4.6-9.4,11.2c0,7.8,5.3,11.2,9.4,11.2
		c1,0,2.2-0.4,2.7-0.7c0.5-0.3,1.5-0.7,2.2-0.7c0.7,0,1,0.3,1.7,0.8l0,0v-7.9l0,0c-0.6,3.1-2.8,8.4-6.7,8.4c-1.1,0-2.6-0.5-3.3-1.3
		C36.1,24,34.6,22.9,34.6,14.5L34.6,14.5L34.6,14.5L34.6,14.5z"/>
	<path style="fill-rule:evenodd;clip-rule:evenodd;fill:#FFFFFF;" d="M59.3,13.6c4.3-0.9,5-2.8,5-4.8c0-2.6-3-5.2-7.3-5.2H46.8v0.2
		h3.4v21.3h-3.4v0.2h10.7c3.2,0,8-2,8-6.2C65.5,15,61,13.8,59.3,13.6z M60.7,8.8c0,4.5-1.5,4.7-2.9,4.7h-3.2V3.8H57
		C58.9,3.8,60.7,4.3,60.7,8.8z M57.4,25.2h-3.1v-0.1h0.3V13.7h3c2.2,0.1,3.9,1.1,3.9,5.8C61.5,24.2,60,25.2,57.4,25.2z"/>
	<path style="fill-rule:evenodd;clip-rule:evenodd;fill:#FFFFFF;" d="M78.3,11.5h0.3l0-8.2h-0.2c0,0-0.7,0.8-1.7,0.8
		c-1,0-2.5-0.9-4.1-0.9c-1.6,0-5.9,1.7-5.9,6.6s3.3,5.7,4.8,6.4c1.5,0.6,6.4,1.7,6.4,4.9c0,3.2-2.3,4.4-4.2,4.4
		c-1.9,0-4.3-1.4-5.6-4.3c-1.3-2.9-1.3-4.3-1.3-4.3h-0.3v8.3h0.2c0,0,0.6-0.8,1.4-0.8c0.8,0,3.5,1.4,5.7,1.4c2.2,0,6.6-2.2,6.6-7.2
		c0-4.9-3.7-5.5-5-5.9c-1.3-0.5-6.4-1.3-6.4-5c0-3.7,3.8-5,6-3.4C77.1,5.9,78.2,10.3,78.3,11.5z"/>
	<path style="fill-rule:evenodd;clip-rule:evenodd;fill:#FFFFFF;" d="M75.4,37.7c-1.3-0.5-6.4-1.3-6.4-5c0-3.7,3.8-5,6-3.4
		c2.2,1.6,3.3,6,3.4,7.2h0.3l0-8.2h-0.2c0,0-0.7,0.8-1.7,0.8c-1,0-2.5-0.9-4.1-0.9c-1.6,0-5.9,1.7-5.9,6.6c0,4.9,3.3,5.7,4.8,6.4
		c1.5,0.6,6.4,1.7,6.4,4.9c0,3.2-2.3,4.4-4.2,4.4c-1.9,0-4.3-1.4-5.6-4.3c-1.3-2.9-1.3-4.3-1.3-4.3h-0.3v8.3h0.2
		c0,0,0.6-0.8,1.4-0.8c0.8,0,3.5,1.4,5.7,1.4c2.2,0,6.6-2.2,6.6-7.2C80.4,38.7,76.7,38.2,75.4,37.7z M67.9,28.5h-5v0.6h2.2
		l-4.8,15.7l-4.7-15.7h2.4v-0.6h-8v0.6h1.4l2.1,6.6l-2.8,9.1l-4.6-15.7h1.8v-0.6H19.4v0.6h2.5v13.8l-8.8-14.4h-1h-0.6H6.7v0.6h2.4
		v20.7H6.7v0.5h5.4v-0.5H9.8V31.2l11.6,19.2h0.5H22h0.3V29.1h4.4v20.7h-2.4v0.5h16.9v-0.2v-0.3v-6.3h-0.4c0,0-0.8,3.8-2.5,5.1
		c-0.9,0.7-1.8,1-2.5,1.2h-5.2V39c0.3,0,1,0,1.6,0c0.9,0,1.7,0.2,2.4,1c0.8,0.8,1.4,3.5,1.4,3.5h0.5V34H36c0,0-0.3,1.2-0.8,2.6
		c-0.5,1.4-2.2,1.9-3,1.9c-0.6,0-1.3,0-1.7,0v-9.3h4.7c1,0.3,2.3,0.8,2.9,1.6c1.1,1.4,1.4,3.1,1.4,3.1h0.5v-4.8H42l6.6,22h0.8
		l4.5-14.4l4.3,14.4H59l6.9-22h2V28.5z"/>
</g>
</svg>
