<?xml version="1.0" encoding="utf-8"?>
<!-- Generator: Adobe Illustrator 24.2.1, SVG Export Plug-In . SVG Version: 6.00 Build 0)  -->
<svg version="1.1" id="Layer_1" xmlns="http://www.w3.org/2000/svg" xmlns:xlink="http://www.w3.org/1999/xlink" x="0px" y="0px"
	 width="86.9px" height="54.4px" viewBox="0 0 86.9 54.4" style="enable-background:new 0 0 86.9 54.4;" xml:space="preserve">
<g>
	<polygon id="XMLID_131_" style="fill:#FFFFFF;" points="33.9,15.8 44.3,15.8 44.7,20.3 38.8,20.3 38.8,22.6 43.6,22.6 43.6,27.1 
		38.7,27.1 38.7,32.5 33.8,32.5 33.8,15.8 	"/>
	<path style="fill:#FFFFFF;" d="M53.1,15.7c-4.8,0-8.6,3.8-8.6,8.5s3.9,8.5,8.6,8.5s8.6-3.8,8.6-8.5S57.8,15.7,53.1,15.7z
		 M54.5,27.7c-0.2,0.7-0.3,1.4-1.5,1.4c-0.6,0-1.3-0.5-1.4-1.5l0-7.5l0,0c0.2-0.7,1-1.2,1.5-1.2c1,0.1,1.3,0.9,1.4,1.4V27.7z"/>
	<polygon id="XMLID_130_" style="fill:#FFFFFF;" points="59.4,15.8 64.8,15.8 66.8,19.2 68.9,15.8 74.2,15.8 69.6,23.8 74.8,32.5 
		69.3,32.5 66.9,28.4 64.5,32.5 59.2,32.5 64.2,23.9 	"/>
	<polygon id="XMLID_129_" style="fill:#FFFFFF;" points="21.7,50.7 21.7,35.4 26.2,35.4 30.8,43.1 30.8,35.4 34.6,35.4 34.6,50.7 
		30.9,50.7 25.6,41.9 25.6,50.7 	"/>
	<polygon id="XMLID_111_" style="fill:#FFFFFF;" points="35.6,35.4 35.6,50.7 45.6,50.7 45.6,47.2 39.4,47.2 39.4,44.5 44.4,44.5 
		44.4,41.2 39.4,41.2 39.4,39 45.5,39 45.5,35.4 	"/>
	<path id="XMLID_110_" style="fill:#FFFFFF;" d="M63.4,46.2l3.6-0.8c0.4,0.9,0.7,1.8,2.4,1.8c1.2,0.1,1.5-0.4,1.6-0.8
		c0.1-1-0.9-1.3-1.9-1.6c-1.5-0.4-2.9-0.9-3.9-1.7c-0.8-0.7-1.6-1.5-1.2-4.1c0.5-2.1,1.8-3.6,4.5-3.9c4.1-0.5,5.6,1.6,6.4,3.8
		l-3.4,1.1c-0.5-0.7-0.9-1.6-1.9-1.6c-1.3,0-1.5,0.8-1.6,1.1c-0.1,0.6,0.5,0.9,1.3,1.1c1.8,0.4,2.6,0.7,3.3,1c1.2,0.5,2,1.3,2.3,2.3
		c0.8,2.5-0.2,4.9-2,6.1c-1.4,0.9-3.1,1.3-5.8,0.6C65.3,50,63.9,48.5,63.4,46.2L63.4,46.2z"/>
	<polygon id="XMLID_109_" style="fill:#FFFFFF;" points="46.2,35.4 50.2,35.4 52.1,44.4 53.8,35.3 57.2,35.3 59,44.3 60.9,35.4 
		64.1,35.4 60.5,50.7 57,50.7 55.2,42 53.4,50.7 49.8,50.7 	"/>
	<polygon id="XMLID_105_" style="fill:#FFFFFF;" points="12,53.2 21.1,39 21.1,34.8 23.7,34.8 33.3,19.7 33.3,15.1 36.3,15.1 
		45,1.1 36.7,1.1 11.8,53.3 12,53.3 	"/>
	<polygon id="XMLID_2_" style="fill:#FFFFFF;" points="11.7,53.2 29.8,1.1 22.4,1.1 11.6,52.3 11.6,53.2 	"/>
</g>
</svg>
