<?xml version="1.0" encoding="utf-8"?>
<!-- Generator: Adobe Illustrator 24.2.1, SVG Export Plug-In . SVG Version: 6.00 Build 0)  -->
<svg version="1.1" id="Layer_1" xmlns="http://www.w3.org/2000/svg" xmlns:xlink="http://www.w3.org/1999/xlink" x="0px" y="0px"
	 width="86.9px" height="54.4px" viewBox="0 0 86.9 54.4" style="enable-background:new 0 0 86.9 54.4;" xml:space="preserve">
<g>
	<g>
		<polygon style="fill:#FFFFFF;" points="10,39.2 10,42.3 13.7,42.3 13.7,52.4 17.2,52.4 17.2,42.3 20.8,42.3 20.8,39.2 		"/>
		<g>
			<path style="fill:#FFFFFF;" d="M30.2,49.2c-0.4,0.2-0.9,0.3-1.4,0.3c-0.5,0-1-0.1-1.4-0.3c-0.4-0.2-0.8-0.5-1.1-0.8
				c-0.3-0.3-0.5-0.7-0.7-1.2c-0.2-0.4-0.2-0.9-0.2-1.5c0-0.5,0.1-1,0.2-1.5c0.2-0.4,0.4-0.8,0.7-1.2c0.3-0.3,0.7-0.6,1.1-0.8
				c0.4-0.2,0.9-0.3,1.4-0.3c0.5,0,1,0.1,1.4,0.3c0.4,0.2,0.8,0.5,1.1,0.8c0.3,0.3,0.5,0.7,0.7,1.2c0.2,0.4,0.2,0.9,0.2,1.5
				c0,0.5-0.1,1-0.2,1.5c-0.2,0.4-0.4,0.8-0.7,1.2C30.9,48.8,30.6,49,30.2,49.2 M33.8,40.9c-0.6-0.6-1.4-1.1-2.2-1.4
				c-0.9-0.3-1.8-0.5-2.8-0.5c-1,0-2,0.2-2.8,0.5c-0.9,0.3-1.6,0.8-2.2,1.4c-0.6,0.6-1.1,1.3-1.5,2.2c-0.4,0.8-0.5,1.8-0.5,2.8
				c0,1,0.2,1.9,0.5,2.8c0.4,0.8,0.9,1.6,1.5,2.2c0.6,0.6,1.4,1.1,2.2,1.4c0.9,0.3,1.8,0.5,2.8,0.5c1,0,1.9-0.2,2.8-0.5
				c0.9-0.3,1.6-0.8,2.2-1.4c0.6-0.6,1.1-1.3,1.5-2.2c0.4-0.8,0.5-1.8,0.5-2.8c0-1-0.2-1.9-0.5-2.8C34.9,42.2,34.4,41.5,33.8,40.9"
				/>
			<path style="fill:#FFFFFF;" d="M46.9,45.8c0,0.5-0.1,0.9-0.2,1.4c-0.2,0.4-0.4,0.8-0.7,1.1c-0.3,0.3-0.7,0.6-1.1,0.8
				c-0.4,0.2-0.9,0.3-1.5,0.3h-2v-7h2.1c0.6,0,1.1,0.1,1.5,0.3c0.4,0.2,0.8,0.4,1.1,0.7c0.3,0.3,0.5,0.7,0.7,1.1
				C46.8,44.8,46.9,45.3,46.9,45.8 M48.4,41c-0.6-0.6-1.4-1-2.2-1.3c-0.9-0.3-1.8-0.5-2.9-0.5h-5.5v13.2h5.6c1,0,2-0.2,2.8-0.5
				c0.9-0.3,1.6-0.7,2.3-1.3c0.6-0.6,1.1-1.3,1.5-2.1c0.4-0.8,0.5-1.7,0.5-2.8c0-1-0.2-2-0.5-2.8C49.6,42.2,49.1,41.5,48.4,41"/>
		</g>
		<path style="fill:#FFFFFF;" d="M59.3,47.4h-3.1l1.6-4.6L59.3,47.4z M59.9,39.2h-4.3l-4.9,13.1l0,0.1h4l0.6-1.9h5l0.6,1.9h4
			L59.9,39.2L59.9,39.2z"/>
		<polygon style="fill:#FFFFFF;" points="72.9,39.2 70.2,43.9 67.4,39.2 63.4,39.2 68.4,47.1 68.4,52.4 71.9,52.4 71.9,47.1 
			76.9,39.2 		"/>
	</g>
	<g>
		<g>
			<path style="fill:#FFFFFF;" d="M18.6,33.2c0.9-12.8,11.5-22.9,24.5-22.9c13,0,23.7,10.2,24.5,23.1c0,0.5,0,1,0,1.5h8.6
				c0-0.5,0-0.9,0-1.4C75.5,15.9,60.9,1.7,43.1,1.7C25.4,1.7,10.9,15.7,10,33.2c0,0.6,0,1.1,0,1.7h8.6
				C18.6,34.4,18.6,33.8,18.6,33.2"/>
			<path style="fill:#FFFFFF;" d="M29.7,33.3c0.8-6.7,6.5-11.9,13.4-11.9c7,0,12.7,5.3,13.4,12.1c0.1,0.5,0.1,1,0.1,1.5h8.6
				c0-0.5,0-0.9,0-1.4c-0.7-11.6-10.3-20.7-22-20.7c-11.7,0-21.3,9.1-22,20.7c0,0.5,0,1,0,1.5h8.6C29.6,34.4,29.6,33.9,29.7,33.3"/>
			<path style="fill:#FFFFFF;" d="M43.1,23.9c-5.4,0-9.9,3.9-10.8,9c-0.1,0.7-0.2,1.4-0.2,2.1h22.1c0-0.5,0-1.1-0.1-1.6
				C53.3,28,48.7,23.9,43.1,23.9"/>
		</g>
	</g>
</g>
</svg>
