<?xml version="1.0" encoding="utf-8"?>
<!-- Generator: Adobe Illustrator 24.2.1, SVG Export Plug-In . SVG Version: 6.00 Build 0)  -->
<svg version="1.1" id="icons" xmlns="http://www.w3.org/2000/svg" xmlns:xlink="http://www.w3.org/1999/xlink" x="0px" y="0px"
	 width="36px" height="34px" viewBox="0 0 36 34" style="enable-background:new 0 0 36 34;" xml:space="preserve">
<linearGradient id="SVGID_1_" gradientUnits="userSpaceOnUse" x1="0" y1="17" x2="36" y2="17">
	<stop  offset="2.769963e-04" style="stop-color:#2360EB"/>
	<stop  offset="1" style="stop-color:#3A84FF"/>
</linearGradient>
<path style="fill:url(#SVGID_1_);" d="M29.1,16.3l1.6-1.6c2-2,3.3-3.9,3.3-6.7c0-2.2-0.8-4.2-2.3-5.7C30.2,0.8,28.2,0,26,0
	c-2.8,0-4.7,1.3-6.7,3.3l-6.9,7l-9,9C1.7,21,0,22.9,0,26c0,2.1,0.8,4.1,2.3,5.7C3.9,33.2,5.9,34,8,34c2.8,0,4.7-1.3,6.7-3.3l3.6-3.6
	c1,3.9,4.5,6.9,8.7,6.9c5,0,9-4,9-9C36,20.8,33.1,17.2,29.1,16.3z M13.8,11.7l6.9-7C22.4,3,23.8,2,26,2c1.7,0,3.2,0.6,4.3,1.7
	C31.4,4.8,32,6.3,32,8c0,2.2-1,3.6-2.7,5.3L22,20.6L13.5,12L13.8,11.7z M13.3,29.3C11.6,31,10.2,32,8,32c-1.6,0-3.1-0.6-4.3-1.7
	C2.6,29.1,2,27.6,2,26c0-2.1,1-3.5,2.8-5.2l7.3-7.3l8.5,8.5L13.3,29.3z M27,32c-3.7,0-6.8-2.9-7-6.6l7.4-7.4c3.7,0.2,6.6,3.3,6.6,7
	C34,28.9,30.9,32,27,32z M30.7,21.3c0.4,0.4,0.4,1,0,1.4l-6,6C24.5,28.9,24.3,29,24,29c-0.3,0-0.5-0.1-0.7-0.3c-0.4-0.4-0.4-1,0-1.4
	l6-6C29.7,20.9,30.3,20.9,30.7,21.3z M6.5,21.7c0.4,0.4,0.4,1,0,1.4C5.4,24.3,5,24.8,5,26c0,0.8,0.2,1.5,0.7,2.1
	c0.3,0.4,0.2,1.1-0.2,1.4c-0.2,0.1-0.4,0.2-0.6,0.2c-0.3,0-0.6-0.1-0.8-0.4C3.4,28.3,3,27.2,3,26c0-2.1,0.9-3.1,2.1-4.3
	C5.5,21.3,6.1,21.3,6.5,21.7z"/>
</svg>
