<?xml version="1.0" encoding="utf-8"?>
<!-- Generator: Adobe Illustrator 24.2.1, SVG Export Plug-In . SVG Version: 6.00 Build 0)  -->
<svg version="1.1" id="icons" xmlns="http://www.w3.org/2000/svg" xmlns:xlink="http://www.w3.org/1999/xlink" x="0px" y="0px"
	 width="30px" height="42px" viewBox="0 0 30 42" style="enable-background:new 0 0 30 42;" xml:space="preserve">
<linearGradient id="SVGID_1_" gradientUnits="userSpaceOnUse" x1="0" y1="20.9998" x2="29.9999" y2="20.9998">
	<stop  offset="2.769963e-04" style="stop-color:#2360EB"/>
	<stop  offset="1" style="stop-color:#3A84FF"/>
</linearGradient>
<path style="fill:url(#SVGID_1_);" d="M29.9,24.5c-0.3-0.5-0.9-0.7-1.4-0.4l-9,5c-0.5,0.3-0.7,0.9-0.4,1.4c0.2,0.3,0.5,0.5,0.9,0.5
	c0.2,0,0.3,0,0.5-0.1l3.5-1.9c-0.5,4-3.9,7-7.9,7c-1.2,0-2.1,0-2.2,0C11.5,36,7,32.5,7,28c0-3.1,1.3-6,3.5-8c0.2,0,0.3,0,0.5,0
	c0.6,0,1.2-0.2,1.8-0.4l3.3,5.9c0.2,0.3,0.5,0.5,0.9,0.5c0.2,0,0.3,0,0.5-0.1l9-5c0.2-0.1,0.4-0.3,0.5-0.6c0.1-0.3,0-0.5-0.1-0.8
	l-9-16C17.6,3,17,2.9,16.5,3.1l-1,0.6l-1.6-3.2c-0.1-0.3-0.4-0.5-0.7-0.5c-0.3-0.1-0.6,0-0.8,0.2l-5,4C7,4.5,6.9,5.1,7.2,5.6l1.3,2
	l-1,0.6C7.3,8.3,7.1,8.5,7,8.7C7,9,7,9.3,7.1,9.5l1.8,3.1c-0.8,0.5-1.4,1.3-1.7,2.3C3.3,18.1,1,22.9,1,28c0,2.4,0.4,5.8,1.6,8.5
	C1.1,37.4,0,39.1,0,41c0,0.6,0.4,1,1,1h23c0.6,0,1-0.4,1-1c0-2.2-1.4-4-3.4-4.7c2.7-1.8,4.4-4.8,4.4-8.3c0-0.1,0-0.1,0-0.2l3.5-2
	C30,25.6,30.1,25,29.9,24.5z M9,16c0-1.1,0.9-2,2-2c1.1,0,2,0.9,2,2c0,1.1-0.9,2-2,2C9.9,18,9,17.1,9,16z M9.3,5.2l3.3-2.7l1.1,2.1
	l-3.5,1.9L9.3,5.2z M9.4,9.4l7.3-4l8,14.3l-7.3,4l-3.1-5.4c0.4-0.6,0.7-1.4,0.7-2.2c0-2.2-1.8-4-4-4c-0.1,0-0.1,0-0.2,0L9.4,9.4z
	 M7.3,17.5c0.3,0.6,0.7,1.2,1.2,1.6C6.3,21.5,5,24.7,5,28c0,3.3,2,6.2,4.3,8H4.6C3.5,33.7,3,30.4,3,28C3,24,4.6,20.3,7.3,17.5z
	 M20,38c1.3,0,2.4,0.8,2.8,2H2.2c0.3-0.9,1.1-1.7,2-2H20z"/>
</svg>
