<?xml version="1.0" encoding="utf-8"?>
<!-- Generator: Adobe Illustrator 24.2.1, SVG Export Plug-In . SVG Version: 6.00 Build 0)  -->
<svg version="1.1" id="icons" xmlns="http://www.w3.org/2000/svg" xmlns:xlink="http://www.w3.org/1999/xlink" x="0px" y="0px"
	 width="41px" height="42px" viewBox="0 0 41 42" style="enable-background:new 0 0 41 42;" xml:space="preserve">
<linearGradient id="SVGID_1_" gradientUnits="userSpaceOnUse" x1="0" y1="21" x2="41" y2="21">
	<stop  offset="2.769963e-04" style="stop-color:#2360EB"/>
	<stop  offset="1" style="stop-color:#3A84FF"/>
</linearGradient>
<path style="fill:url(#SVGID_1_);" d="M33.7,15.3C33.7,15.3,33.7,15.3,33.7,15.3C33.7,15.3,33.7,15.3,33.7,15.3l-10-10
	c-0.4-0.4-1-0.4-1.4,0c-0.4,0.4-0.4,1,0,1.4L23.6,8L7.3,24.3C7.1,24.5,7,24.7,7,25c0,0.3,0.1,0.5,0.3,0.7l1.6,1.5l-0.8,2.5
	c-0.1,0.4,0,0.8,0.2,1L8.6,31L0,40v2l10-9.6l0.3,0.3c0.2,0.2,0.4,0.3,0.7,0.3c0.1,0,0.2,0,0.3-0.1l2.7-0.9l1.7,1.7
	c0.2,0.2,0.4,0.3,0.7,0.3c0.3,0,0.5-0.1,0.7-0.3L33,17.4l1.3,1.3c0.2,0.2,0.5,0.3,0.7,0.3c0.3,0,0.5-0.1,0.7-0.3
	c0.4-0.4,0.4-1,0-1.4L33.7,15.3z M11.3,30.9l-1.1-1.1l0.3-1l1.9,1.8L11.3,30.9z M16.4,31.6L9.4,25l2.6-2.6l1.3,1.3
	c0.2,0.2,0.5,0.3,0.7,0.3c0.3,0,0.5-0.1,0.7-0.3c0.4-0.4,0.4-1,0-1.4L13.4,21l2.6-2.6l1.3,1.3c0.2,0.2,0.5,0.3,0.7,0.3
	c0.3,0,0.5-0.1,0.7-0.3c0.4-0.4,0.4-1,0-1.4L17.4,17l2.6-2.6l1.3,1.3c0.2,0.2,0.5,0.3,0.7,0.3c0.3,0,0.5-0.1,0.7-0.3
	c0.4-0.4,0.4-1,0-1.4L21.4,13L25,9.4l6.6,6.6L16.4,31.6z M40.7,9.7C40.5,9.9,40.3,10,40,10c-0.3,0-0.5-0.1-0.7-0.3L38,8.4L33.4,13
	L32,11.6L36.6,7L34,4.4L29.4,9L28,7.6L32.6,3l-1.3-1.3c-0.4-0.4-0.4-1,0-1.4c0.4-0.4,1-0.4,1.4,0l2,2l4,4l2,2
	C41.1,8.7,41.1,9.3,40.7,9.7z"/>
</svg>
