<?xml version="1.0" encoding="utf-8"?>
<!-- Generator: Adobe Illustrator 24.2.1, SVG Export Plug-In . SVG Version: 6.00 Build 0)  -->
<svg version="1.1" id="Layer_1" xmlns="http://www.w3.org/2000/svg" xmlns:xlink="http://www.w3.org/1999/xlink" x="0px" y="0px"
	 width="17.5px" height="17.5px" viewBox="0 0 17.5 17.5" style="enable-background:new 0 0 17.5 17.5;" xml:space="preserve">
<g>
	<path style="fill:#FFFFFF;" d="M8.8,1.6c2.3,0,2.6,0,3.5,0.1c0.8,0,1.3,0.2,1.6,0.3c0.4,0.2,0.7,0.4,1,0.7c0.3,0.3,0.5,0.6,0.6,1
		c0.1,0.3,0.3,0.8,0.3,1.6c0,0.9,0,1.2,0,3.5c0,2.3,0,2.6-0.1,3.5c0,0.8-0.2,1.3-0.3,1.6c-0.2,0.4-0.4,0.7-0.7,1
		c-0.3,0.3-0.6,0.5-1,0.6c-0.3,0.1-0.8,0.3-1.6,0.3c-0.9,0-1.2,0-3.5,0c-2.3,0-2.6,0-3.5-0.1c-0.8,0-1.3-0.2-1.6-0.3
		c-0.4-0.2-0.7-0.4-1-0.7c-0.3-0.3-0.5-0.6-0.6-1c-0.1-0.3-0.3-0.8-0.3-1.6c0-0.9,0-1.2,0-3.5c0-2.3,0-2.6,0.1-3.5
		c0-0.8,0.2-1.3,0.3-1.6c0.2-0.4,0.4-0.7,0.7-1c0.3-0.3,0.6-0.5,1-0.6C4,1.8,4.4,1.6,5.3,1.6C6.2,1.6,6.5,1.6,8.8,1.6 M8.8,0
		C6.4,0,6.1,0,5.2,0c-0.9,0-1.6,0.2-2.1,0.4C2.5,0.6,2,0.9,1.5,1.4c-0.5,0.5-0.8,1-1,1.5C0.3,3.5,0.1,4.1,0.1,5.1C0,6,0,6.3,0,8.7
		c0,2.4,0,2.7,0,3.6c0,0.9,0.2,1.6,0.4,2.1c0.2,0.6,0.5,1.1,1,1.6c0.5,0.5,1,0.8,1.5,1c0.6,0.2,1.2,0.4,2.1,0.4
		c0.9,0.1,1.2,0.1,3.6,0.1c2.4,0,2.7,0,3.6,0c0.9,0,1.6-0.2,2.1-0.4c0.6-0.2,1.1-0.5,1.6-1c0.5-0.5,0.8-1,1-1.5
		c0.2-0.6,0.4-1.2,0.4-2.1c0.1-0.9,0.1-1.2,0.1-3.6c0-2.4,0-2.7,0-3.6c0-0.9-0.2-1.6-0.4-2.1c-0.2-0.6-0.5-1.1-1-1.6
		c-0.5-0.5-1-0.8-1.5-1c-0.6-0.2-1.2-0.4-2.1-0.4C11.5,0,11.2,0,8.8,0"/>
	<path style="fill:#FFFFFF;" d="M8.8,4.3c-2.5,0-4.5,2-4.5,4.4c0,2.5,2,4.5,4.4,4.5c2.5,0,4.5-2,4.5-4.4C13.2,6.3,11.2,4.3,8.8,4.3
		 M8.7,11.6c-1.6,0-2.9-1.3-2.9-2.9c0-1.6,1.3-2.9,2.9-2.9c1.6,0,2.9,1.3,2.9,2.9C11.6,10.4,10.3,11.7,8.7,11.6"/>
	<path style="fill:#FFFFFF;" d="M14.5,4.1c0,0.6-0.5,1-1.1,1c-0.6,0-1-0.5-1-1.1c0-0.6,0.5-1,1.1-1C14,3.1,14.5,3.5,14.5,4.1"/>
</g>
</svg>
