<?xml version="1.0" encoding="utf-8"?>
<!-- Generator: Adobe Illustrator 24.2.1, SVG Export Plug-In . SVG Version: 6.00 Build 0)  -->
<svg version="1.1" id="Layer_1" xmlns="http://www.w3.org/2000/svg" xmlns:xlink="http://www.w3.org/1999/xlink" x="0px" y="0px"
	 width="17.9px" height="14.5px" viewBox="0 0 17.9 14.5" style="enable-background:new 0 0 17.9 14.5;" xml:space="preserve">
<path style="fill:#FFFFFF;" d="M17.9,1.7c-0.7,0.3-1.4,0.5-2.1,0.6c0.8-0.5,1.3-1.2,1.6-2c-0.7,0.4-1.5,0.7-2.3,0.9
	C14.4,0.4,13.4,0,12.4,0c-2,0-3.7,1.6-3.7,3.7c0,0.3,0,0.6,0.1,0.8C5.8,4.4,3.1,2.9,1.2,0.7C0.9,1.2,0.7,1.8,0.7,2.5
	c0,1.3,0.6,2.4,1.6,3.1c-0.6,0-1.2-0.2-1.7-0.5c0,0,0,0,0,0c0,1.8,1.3,3.3,2.9,3.6C3.4,8.8,3,8.9,2.7,8.9c-0.2,0-0.5,0-0.7-0.1
	c0.5,1.5,1.8,2.5,3.4,2.5c-1.3,1-2.8,1.6-4.6,1.6c-0.3,0-0.6,0-0.9-0.1c1.6,1,3.6,1.6,5.6,1.6c6.8,0,10.4-5.6,10.4-10.4
	c0-0.2,0-0.3,0-0.5C16.8,3.1,17.4,2.5,17.9,1.7z"/>
</svg>
