<?xml version="1.0" encoding="utf-8"?>
<!-- Generator: Adobe Illustrator 24.2.1, SVG Export Plug-In . SVG Version: 6.00 Build 0)  -->
<svg version="1.1" id="Layer_1" xmlns="http://www.w3.org/2000/svg" xmlns:xlink="http://www.w3.org/1999/xlink" x="0px" y="0px"
	 width="8.3px" height="17.8px" viewBox="0 0 8.3 17.8" style="enable-background:new 0 0 8.3 17.8;" xml:space="preserve">
<path id="Facebook_3_" style="fill:#FFFFFF;" d="M1.8,3.4c0,0.4,0,2.5,0,2.5H0v3h1.8v8.9h3.7V8.9H8c0,0,0.2-1.4,0.3-3
	c-0.3,0-2.8,0-2.8,0s0-1.7,0-2c0-0.3,0.4-0.7,0.8-0.7c0.4,0,1.2,0,2,0c0-0.4,0-1.8,0-3.1c-1,0-2.2,0-2.7,0C1.7,0,1.8,3,1.8,3.4z"/>
</svg>
