<?xml version="1.0" encoding="utf-8"?>
<!-- Generator: Adobe Illustrator 24.2.3, SVG Export Plug-In . SVG Version: 6.00 Build 0)  -->
<svg version="1.1" id="Layer_1" xmlns="http://www.w3.org/2000/svg" xmlns:xlink="http://www.w3.org/1999/xlink" x="0px" y="0px"
	 width="140.5px" height="26.1px" viewBox="0 0 140.5 26.1" style="enable-background:new 0 0 140.5 26.1;" xml:space="preserve">
<linearGradient id="SVGID_1_" gradientUnits="userSpaceOnUse" x1="70.2286" y1="0" x2="70.2286" y2="26.1262">
	<stop  offset="0" style="stop-color:#E34A1D"/>
	<stop  offset="0.9995" style="stop-color:#D72725"/>
</linearGradient>
<path style="fill:url(#SVGID_1_);" d="M42,19.6l-8.5,6.5L37.1,16L28.3,10L39,10.3L42,0l3,10.3L55.8,10L46.9,16l3.6,10.1L42,19.6z
	 M78.9,26.1L75.3,16l8.8-6.1l-10.7,0.3L70.4,0l-3,10.3L56.7,10l8.8,6.1l-3.6,10.1l8.5-6.5L78.9,26.1z M106.8,26.1L103.2,16l8.8-6.1
	l-10.7,0.3L98.3,0l-3,10.3L84.6,10l8.8,6.1l-3.6,10.1l8.5-6.5L106.8,26.1z M135.2,26.1L131.6,16l8.8-6.1l-10.7,0.3l-3-10.3l-3,10.3
	L113,10l8.8,6.1l-3.6,10.1l8.5-6.5L135.2,26.1z M22.2,26.1L18.6,16l8.8-6.1l-10.7,0.3L13.7,0l-3,10.3L0,10L8.8,16L5.2,26.1l8.5-6.5
	L22.2,26.1z"/>
</svg>
